<svg id="visual" viewBox="0 0 900 600" width="900" height="600" xmlns="http://www.w3.org/2000/svg" xmlns:xlink="http://www.w3.org/1999/xlink" version="1.1"><path d="M809 600L816.5 592.3C824 584.7 839 569.3 837.5 554C836 538.7 818 523.3 801.5 508C785 492.7 770 477.3 768.5 461.8C767 446.3 779 430.7 783.5 415.2C788 399.7 785 384.3 780.5 369C776 353.7 770 338.3 768.5 323C767 307.7 770 292.3 765.5 277C761 261.7 749 246.3 758 231C767 215.7 797 200.3 797 184.8C797 169.3 767 153.7 756.5 138.2C746 122.7 755 107.3 761 92C767 76.7 770 61.3 768.5 46C767 30.7 761 15.3 758 7.7L755 0L900 0L900 7.7C900 15.3 900 30.7 900 46C900 61.3 900 76.7 900 92C900 107.3 900 122.7 900 138.2C900 153.7 900 169.3 900 184.8C900 200.3 900 215.7 900 231C900 246.3 900 261.7 900 277C900 292.3 900 307.7 900 323C900 338.3 900 353.7 900 369C900 384.3 900 399.7 900 415.2C900 430.7 900 446.3 900 461.8C900 477.3 900 492.7 900 508C900 523.3 900 538.7 900 554C900 569.3 900 584.7 900 592.3L900 600Z" fill="#0043a6"></path><path d="M620 600L629 592.3C638 584.7 656 569.3 641 554C626 538.7 578 523.3 573.5 508C569 492.7 608 477.3 612.5 461.8C617 446.3 587 430.7 551 415.2C515 399.7 473 384.3 446 369C419 353.7 407 338.3 416 323C425 307.7 455 292.3 479 277C503 261.7 521 246.3 528.5 231C536 215.7 533 200.3 501.5 184.8C470 169.3 410 153.7 389 138.2C368 122.7 386 107.3 393.5 92C401 76.7 398 61.3 438.5 46C479 30.7 563 15.3 605 7.7L647 0L756 0L759 7.7C762 15.3 768 30.7 769.5 46C771 61.3 768 76.7 762 92C756 107.3 747 122.7 757.5 138.2C768 153.7 798 169.3 798 184.8C798 200.3 768 215.7 759 231C750 246.3 762 261.7 766.5 277C771 292.3 768 307.7 769.5 323C771 338.3 777 353.7 781.5 369C786 384.3 789 399.7 784.5 415.2C780 430.7 768 446.3 769.5 461.8C771 477.3 786 492.7 802.5 508C819 523.3 837 538.7 838.5 554C840 569.3 825 584.7 817.5 592.3L810 600Z" fill="#606cbc"></path><path d="M548 600L540.5 592.3C533 584.7 518 569.3 495.5 554C473 538.7 443 523.3 438.5 508C434 492.7 455 477.3 461 461.8C467 446.3 458 430.7 441.5 415.2C425 399.7 401 384.3 374 369C347 353.7 317 338.3 312.5 323C308 307.7 329 292.3 356 277C383 261.7 416 246.3 417.5 231C419 215.7 389 200.3 359 184.8C329 169.3 299 153.7 297.5 138.2C296 122.7 323 107.3 332 92C341 76.7 332 61.3 356 46C380 30.7 437 15.3 465.5 7.7L494 0L648 0L606 7.7C564 15.3 480 30.7 439.5 46C399 61.3 402 76.7 394.5 92C387 107.3 369 122.7 390 138.2C411 153.7 471 169.3 502.5 184.8C534 200.3 537 215.7 529.5 231C522 246.3 504 261.7 480 277C456 292.3 426 307.7 417 323C408 338.3 420 353.7 447 369C474 384.3 516 399.7 552 415.2C588 430.7 618 446.3 613.5 461.8C609 477.3 570 492.7 574.5 508C579 523.3 627 538.7 642 554C657 569.3 639 584.7 630 592.3L621 600Z" fill="#9699d1"></path><path d="M476 600L465.5 592.3C455 584.7 434 569.3 383 554C332 538.7 251 523.3 227 508C203 492.7 236 477.3 261.5 461.8C287 446.3 305 430.7 302 415.2C299 399.7 275 384.3 251 369C227 353.7 203 338.3 188 323C173 307.7 167 292.3 201.5 277C236 261.7 311 246.3 305 231C299 215.7 212 200.3 179 184.8C146 169.3 167 153.7 173 138.2C179 122.7 170 107.3 180.5 92C191 76.7 221 61.3 251 46C281 30.7 311 15.3 326 7.7L341 0L495 0L466.5 7.7C438 15.3 381 30.7 357 46C333 61.3 342 76.7 333 92C324 107.3 297 122.7 298.5 138.2C300 153.7 330 169.3 360 184.8C390 200.3 420 215.7 418.5 231C417 246.3 384 261.7 357 277C330 292.3 309 307.7 313.5 323C318 338.3 348 353.7 375 369C402 384.3 426 399.7 442.5 415.2C459 430.7 468 446.3 462 461.8C456 477.3 435 492.7 439.5 508C444 523.3 474 538.7 496.5 554C519 569.3 534 584.7 541.5 592.3L549 600Z" fill="#c8c8e6"></path><path d="M0 600L0 592.3C0 584.7 0 569.3 0 554C0 538.7 0 523.3 0 508C0 492.7 0 477.3 0 461.8C0 446.3 0 430.7 0 415.2C0 399.7 0 384.3 0 369C0 353.7 0 338.3 0 323C0 307.7 0 292.3 0 277C0 261.7 0 246.3 0 231C0 215.7 0 200.3 0 184.8C0 169.3 0 153.7 0 138.2C0 122.7 0 107.3 0 92C0 76.7 0 61.3 0 46C0 30.7 0 15.3 0 7.7L0 0L342 0L327 7.7C312 15.3 282 30.7 252 46C222 61.3 192 76.7 181.5 92C171 107.3 180 122.7 174 138.2C168 153.7 147 169.3 180 184.8C213 200.3 300 215.7 306 231C312 246.3 237 261.7 202.5 277C168 292.3 174 307.7 189 323C204 338.3 228 353.7 252 369C276 384.3 300 399.7 303 415.2C306 430.7 288 446.3 262.5 461.8C237 477.3 204 492.7 228 508C252 523.3 333 538.7 384 554C435 569.3 456 584.7 466.5 592.3L477 600Z" fill="#fafafa"></path></svg>