<svg id="visual" viewBox="0 0 900 600" width="900" height="600" xmlns="http://www.w3.org/2000/svg" xmlns:xlink="http://www.w3.org/1999/xlink" version="1.1"><path d="M0 61L75 49L150 61L225 43L300 73L375 55L450 55L525 49L600 67L675 61L750 55L825 43L900 61L900 0L825 0L750 0L675 0L600 0L525 0L450 0L375 0L300 0L225 0L150 0L75 0L0 0Z" fill="#ffffff"></path><path d="M0 115L75 109L150 139L225 97L300 151L375 133L450 109L525 121L600 145L675 151L750 151L825 115L900 139L900 59L825 41L750 53L675 59L600 65L525 47L450 53L375 53L300 71L225 41L150 59L75 47L0 59Z" fill="#e0deff"></path><path d="M0 235L75 211L150 223L225 223L300 229L375 217L450 235L525 211L600 259L675 241L750 253L825 187L900 235L900 137L825 113L750 149L675 149L600 143L525 119L450 107L375 131L300 149L225 95L150 137L75 107L0 113Z" fill="#bebeff"></path><path d="M0 313L75 265L150 289L225 271L300 307L375 289L450 283L525 259L600 337L675 313L750 301L825 271L900 301L900 233L825 185L750 251L675 239L600 257L525 209L450 233L375 215L300 227L225 221L150 221L75 209L0 233Z" fill="#99a0ff"></path><path d="M0 475L75 445L150 421L225 421L300 475L375 421L450 445L525 463L600 499L675 475L750 421L825 475L900 451L900 299L825 269L750 299L675 311L600 335L525 257L450 281L375 287L300 305L225 269L150 287L75 263L0 311Z" fill="#6a82ff"></path><path d="M0 601L75 601L150 601L225 601L300 601L375 601L450 601L525 601L600 601L675 601L750 601L825 601L900 601L900 449L825 473L750 419L675 473L600 497L525 461L450 443L375 419L300 473L225 419L150 419L75 443L0 473Z" fill="#0066ff"></path></svg>